<svg xmlns="http://www.w3.org/2000/svg" xmlns:xlink="http://www.w3.org/1999/xlink" version="1.1" x="0px" y="0px" viewBox="0 0 33 41.25" enable-background="new 0 0 33 33" xml:space="preserve"><path d="M24.362,8.249c0-4.919-1.632-8.874-4.644-7.458c-0.779,0.366-2.492,0.646-3.219,0.646s-2.439-0.279-3.219-0.646  C10.27-0.625,8.638,3.33,8.638,8.249c0,0-4.063,0.667-4.063,2.758c0,2.758,7.174,2.721,11.926,2.721s11.926,0.037,11.926-2.721  C28.426,8.916,24.362,8.249,24.362,8.249z"/><path d="M24.979,14.054c-2.623,0.361-5.879,0.352-8.479,0.352s-5.855,0.009-8.479-0.352c0,0.023-0.003,0.046-0.003,0.07  c0,1.196,0.189,2.337,0.519,3.399c2.306,0.313,5.021,0.48,7.963,0.48c2.986,0,5.654-0.162,7.962-0.478  c0.33-1.063,0.52-2.205,0.52-3.401C24.981,14.1,24.979,14.078,24.979,14.054z M14.723,16.394c0,0.354-0.287,0.642-0.642,0.642  h-2.406c-0.354,0-0.642-0.287-0.642-0.642v-0.562c0-0.354,0.287-0.642,0.642-0.642h2.406c0.354,0,0.642,0.287,0.642,0.642V16.394z   M21.967,16.394c0,0.354-0.287,0.642-0.642,0.642h-2.406c-0.354,0-0.642-0.287-0.642-0.642v-0.562c0-0.354,0.287-0.642,0.642-0.642  h2.406c0.354,0,0.642,0.287,0.642,0.642V16.394z"/><path d="M16.5,18.614c-2.886,0-5.479-0.151-7.744-0.444c1.322,3.478,4.289,5.905,7.744,5.905s6.422-2.428,7.744-5.905  C21.978,18.463,19.386,18.614,16.5,18.614z"/><path d="M2.761,32.5h27.479c0-7.294-5.258-7.973-5.258-7.973c3.108-1.329,4.614,0.504,3.444-1.385  c-1.219-1.972-3.744-3.385-4.152-2.742c-1.9,2.996-4.49,4.093-6.246,4.469l-0.203,0.573L16.5,29.182l-1.324-3.741l-0.203-0.573  c-1.756-0.375-4.346-1.473-6.246-4.469c-0.408-0.643-2.934,0.771-4.152,2.742c-1.17,1.89,0.336,0.057,3.444,1.385  C8.019,24.527,2.761,25.206,2.761,32.5z"/><text x="0" y="48" fill="#000000" font-size="5px" font-weight="bold" font-family="'Helvetica Neue', Helvetica, Arial-Unicode, Arial, Sans-serif">Created by Minh Do</text><text x="0" y="53" fill="#000000" font-size="5px" font-weight="bold" font-family="'Helvetica Neue', Helvetica, Arial-Unicode, Arial, Sans-serif">from the Noun Project</text></svg>